<svg id="visual" viewBox="0 0 1000 600" width="1000" height="600" xmlns="http://www.w3.org/2000/svg" xmlns:xlink="http://www.w3.org/1999/xlink" version="1.1"><path d="M333 0L323.2 14.3C313.3 28.7 293.7 57.3 322.7 85.8C351.7 114.3 429.3 142.7 455.3 171.2C481.3 199.7 455.7 228.3 468.3 257C481 285.7 532 314.3 540.5 343C549 371.7 515 400.3 508.7 428.8C502.3 457.3 523.7 485.7 510.7 514.2C497.7 542.7 450.3 571.3 426.7 585.7L403 600L0 600L0 585.7C0 571.3 0 542.7 0 514.2C0 485.7 0 457.3 0 428.8C0 400.3 0 371.7 0 343C0 314.3 0 285.7 0 257C0 228.3 0 199.7 0 171.2C0 142.7 0 114.3 0 85.8C0 57.3 0 28.7 0 14.3L0 0Z" fill="#ffffff" stroke-linecap="round" stroke-linejoin="miter"></path></svg>