<svg id="visual" viewBox="0 0 800 675" width="800" height="675" xmlns="http://www.w3.org/2000/svg" xmlns:xlink="http://www.w3.org/1999/xlink" version="1.1"><path d="M393 0L372.3 12.5C351.7 25 310.3 50 335.5 75C360.7 100 452.3 125 496.7 150C541 175 538 200 531 225C524 250 513 275 500.3 300C487.7 325 473.3 350 445.3 375C417.3 400 375.7 425 390.2 450C404.7 475 475.3 500 465.5 525C455.7 550 365.3 575 366.8 600C368.3 625 461.7 650 508.3 662.5L555 675L0 675L0 662.5C0 650 0 625 0 600C0 575 0 550 0 525C0 500 0 475 0 450C0 425 0 400 0 375C0 350 0 325 0 300C0 275 0 250 0 225C0 200 0 175 0 150C0 125 0 100 0 75C0 50 0 25 0 12.5L0 0Z" fill="#ffffff" stroke-linecap="round" stroke-linejoin="miter"></path></svg>