<svg id="visual" viewBox="0 0 1100 900" width="1100" height="900" xmlns="http://www.w3.org/2000/svg" 
xmlns:xlink="http://www.w3.org/1999/xlink" version="1.1">
<path d="M610 0L635.8 16.7C661.7 33.3 713.3 66.7 703.8 100C694.3 133.3 623.7 166.7 606.5 200C589.3 233.3 625.7 266.7 614.3 300C603 333.3 544 366.7 501.2 400C458.3 433.3 431.7 466.7 440 500C448.3 533.3 491.7 566.7 490.3 600C489 633.3 443 666.7 466.5 700C490 733.3 583 766.7 615.2 800C647.3 833.3 618.7 866.7 604.3 883.3L590 900L0 900L0 883.3C0 866.7 0 833.3 0 800C0 766.7 0 733.3 0 700C0 666.7 0 633.3 0 600C0 566.7 0 533.3 0 500C0 466.7 0 433.3 0 400C0 366.7 0 333.3 0 300C0 266.7 0 233.3 0 200C0 166.7 0 133.3 0 100C0 66.7 0 33.3 0 16.7L0 0Z" fill="#ccd8d8" stroke-linecap="round" stroke-linejoin="miter"></path>
</svg>